<mxfile host="app.diagrams.net" agent="Mozilla/5.0 (X11; Linux x86_64; rv:100.0) Gecko/20100101 Firefox/100.0" version="26.0.14">
  <diagram name="Pagina-1" id="aTVfA4YgdQvqoLNrzZE1">
    <mxGraphModel dx="1764" dy="1195" grid="1" gridSize="10" guides="1" tooltips="1" connect="1" arrows="1" fold="1" page="0" pageScale="1" pageWidth="827" pageHeight="1169" math="0" shadow="1">
      <root>
        <mxCell id="0" />
        <mxCell id="1" parent="0" />
        <mxCell id="70h7yrBwvSvOA4SBrIjd-1" value="&lt;div&gt;Imagine you&#39;re participating in a Mario Kart race with your friends. Each player finishes the race in a specific position.&lt;/div&gt;&lt;div&gt;Write a Python program that takes as input the finishing position of a player, given as a positive integer, and returns the&lt;/div&gt;&lt;div align=&quot;left&quot;&gt;position in cardinal form (e.g., &quot;1st&quot;, &quot;2nd&quot;, &quot;3rd&quot;, &quot;4th&quot;, &quot;5th&quot;, etc.).&lt;br&gt;&lt;/div&gt;" style="text;html=1;align=center;verticalAlign=middle;resizable=0;points=[];autosize=1;strokeColor=none;fillColor=none;" vertex="1" parent="1">
          <mxGeometry x="-170" y="-240" width="650" height="60" as="geometry" />
        </mxCell>
        <mxCell id="70h7yrBwvSvOA4SBrIjd-4" value="" style="edgeStyle=orthogonalEdgeStyle;rounded=0;orthogonalLoop=1;jettySize=auto;html=1;" edge="1" parent="1" source="70h7yrBwvSvOA4SBrIjd-2" target="70h7yrBwvSvOA4SBrIjd-3">
          <mxGeometry relative="1" as="geometry" />
        </mxCell>
        <mxCell id="70h7yrBwvSvOA4SBrIjd-2" value="START" style="ellipse;whiteSpace=wrap;html=1;" vertex="1" parent="1">
          <mxGeometry x="640" y="-240" width="120" height="80" as="geometry" />
        </mxCell>
        <mxCell id="70h7yrBwvSvOA4SBrIjd-6" value="" style="edgeStyle=orthogonalEdgeStyle;rounded=0;orthogonalLoop=1;jettySize=auto;html=1;" edge="1" parent="1" source="70h7yrBwvSvOA4SBrIjd-3" target="70h7yrBwvSvOA4SBrIjd-5">
          <mxGeometry relative="1" as="geometry" />
        </mxCell>
        <mxCell id="70h7yrBwvSvOA4SBrIjd-3" value="Read n" style="shape=parallelogram;perimeter=parallelogramPerimeter;whiteSpace=wrap;html=1;fixedSize=1;" vertex="1" parent="1">
          <mxGeometry x="640" y="-70" width="120" height="60" as="geometry" />
        </mxCell>
        <mxCell id="70h7yrBwvSvOA4SBrIjd-8" style="edgeStyle=orthogonalEdgeStyle;rounded=0;orthogonalLoop=1;jettySize=auto;html=1;entryX=0;entryY=0.5;entryDx=0;entryDy=0;" edge="1" parent="1" source="70h7yrBwvSvOA4SBrIjd-5" target="70h7yrBwvSvOA4SBrIjd-3">
          <mxGeometry relative="1" as="geometry">
            <Array as="points">
              <mxPoint x="560" y="100" />
              <mxPoint x="560" y="-40" />
            </Array>
          </mxGeometry>
        </mxCell>
        <mxCell id="70h7yrBwvSvOA4SBrIjd-9" value="FALSE" style="edgeLabel;html=1;align=center;verticalAlign=middle;resizable=0;points=[];" vertex="1" connectable="0" parent="70h7yrBwvSvOA4SBrIjd-8">
          <mxGeometry x="-0.7806" y="-1" relative="1" as="geometry">
            <mxPoint x="-6" y="1" as="offset" />
          </mxGeometry>
        </mxCell>
        <mxCell id="70h7yrBwvSvOA4SBrIjd-11" value="" style="edgeStyle=orthogonalEdgeStyle;rounded=0;orthogonalLoop=1;jettySize=auto;html=1;" edge="1" parent="1" source="70h7yrBwvSvOA4SBrIjd-5" target="70h7yrBwvSvOA4SBrIjd-10">
          <mxGeometry relative="1" as="geometry" />
        </mxCell>
        <mxCell id="70h7yrBwvSvOA4SBrIjd-12" value="TRUE" style="edgeLabel;html=1;align=center;verticalAlign=middle;resizable=0;points=[];" vertex="1" connectable="0" parent="70h7yrBwvSvOA4SBrIjd-11">
          <mxGeometry x="-0.1778" y="1" relative="1" as="geometry">
            <mxPoint x="-1" y="3" as="offset" />
          </mxGeometry>
        </mxCell>
        <mxCell id="70h7yrBwvSvOA4SBrIjd-5" value="&lt;div&gt;n &amp;gt; 0&lt;/div&gt;&lt;div&gt;AND&lt;/div&gt;&lt;div&gt;n % 1 == 0&lt;br&gt;&lt;/div&gt;" style="rhombus;whiteSpace=wrap;html=1;" vertex="1" parent="1">
          <mxGeometry x="640" y="60" width="120" height="80" as="geometry" />
        </mxCell>
        <mxCell id="70h7yrBwvSvOA4SBrIjd-14" value="" style="edgeStyle=orthogonalEdgeStyle;rounded=0;orthogonalLoop=1;jettySize=auto;html=1;" edge="1" parent="1" source="70h7yrBwvSvOA4SBrIjd-10" target="70h7yrBwvSvOA4SBrIjd-13">
          <mxGeometry relative="1" as="geometry" />
        </mxCell>
        <mxCell id="70h7yrBwvSvOA4SBrIjd-10" value="Write n&quot;th&quot;" style="shape=parallelogram;perimeter=parallelogramPerimeter;whiteSpace=wrap;html=1;fixedSize=1;" vertex="1" parent="1">
          <mxGeometry x="640" y="230" width="120" height="60" as="geometry" />
        </mxCell>
        <mxCell id="70h7yrBwvSvOA4SBrIjd-13" value="END" style="ellipse;whiteSpace=wrap;html=1;" vertex="1" parent="1">
          <mxGeometry x="640" y="360" width="120" height="80" as="geometry" />
        </mxCell>
      </root>
    </mxGraphModel>
  </diagram>
</mxfile>
